<svg xmlns="http://www.w3.org/2000/svg" xmlns:xlink="http://www.w3.org/1999/xlink" width="368" height="689" viewBox="0 0 368 689">
  <defs>
    <rect id="leading-bg-a" width="368" height="719"/>
    <polygon id="leading-bg-c" points=".003 .298 466.721 .298 466.721 464.962 .003 464.962"/>
    <polygon id="leading-bg-e" points="0 .151 466.748 .151 466.748 464.615 0 464.615"/>
    <polygon id="leading-bg-g" points="0 .153 292.122 .153 292.122 242.75 0 242.75"/>
  </defs>
  <g fill="none" fill-rule="evenodd" transform="translate(0 -14)">
    <mask id="leading-bg-b" fill="#fff">
      <use xlink:href="#leading-bg-a"/>
    </mask>
    <g mask="url(#leading-bg-b)">
      <g transform="translate(0 14)">
        <mask id="leading-bg-d" fill="#fff">
          <use xlink:href="#leading-bg-c"/>
        </mask>
        <path fill="#6C63FF" d="M161.143056,458.121567 C178.865962,451.938669 194.117885,441.957436 206.558001,429.563365 L206.595871,429.59164 L430.290748,206.88479 C430.612638,206.583185 430.962931,206.309856 431.275354,205.998826 C478.536435,158.939056 478.536435,82.6424731 431.275354,35.5921283 C384.004805,-11.4676416 307.366493,-11.4676416 260.105412,35.5921283 C259.783522,35.9125834 259.527903,36.2613139 259.196545,36.5723439 L35.5111357,259.269769 L35.5395378,259.30747 C3.71025996,291.041947 -9.07068146,339.204459 6.84395745,384.350924 C28.9881219,447.141268 98.0714771,480.176416 161.143056,458.121567" mask="url(#leading-bg-d)"/>
        <g transform="translate(0 224.398)">
          <mask id="leading-bg-f" fill="#fff">
            <use xlink:href="#leading-bg-e"/>
          </mask>
          <path fill="#E36767" d="M431.295235,258.999528 C430.982812,258.679195 430.63252,258.415392 430.310629,258.104481 L206.615752,35.4828054 L206.577883,35.5204916 C174.691801,3.84525891 126.323038,-8.88324774 80.9743644,6.96379014 C17.9027854,29.0007828 -15.2803255,97.7497932 6.86383891,160.516123 C13.0838971,178.153254 23.1098356,193.321941 35.5594192,205.711272 L35.5310172,205.739536 L259.225894,428.361212 C259.538317,428.681545 259.803403,429.02072 260.125294,429.341053 C307.386375,476.373403 384.024687,476.373403 431.295235,429.341053 C478.565784,382.299281 478.565784,306.031878 431.295235,258.999528" mask="url(#leading-bg-f)"/>
        </g>
        <g transform="translate(0 224.398)">
          <mask id="leading-bg-h" fill="#fff">
            <use xlink:href="#leading-bg-g"/>
          </mask>
          <path fill="#785B62" d="M161.081132,235.870368 C176.778779,230.340476 190.631313,221.879646 202.241327,211.332064 L202.34541,211.445887 L292.121945,121.449974 L202.335948,31.4540605 L202.241327,31.5583981 C170.410776,2.72328257 124.254585,-8.21319383 80.9275664,7.02957943 C17.8909647,29.215545 -15.273744,98.4293076 6.85814004,161.619946 C28.9994862,224.810584 98.0445302,258.056334 161.081132,235.870368" mask="url(#leading-bg-h)"/>
        </g>
      </g>
    </g>
  </g>
</svg>
